<?xml version="1.0" standalone="no"?>
<!DOCTYPE svg PUBLIC "-//W3C//DTD SVG 1.1//EN" "http://www.w3.org/Graphics/SVG/1.1/DTD/svg11.dtd" >
<svg xmlns="http://www.w3.org/2000/svg">
<metadata>
Created by FontForge 20120731 at Tue May  9 09:33:56 2017
 By admin
</metadata>
<defs>
<font id="iconfont" horiz-adv-x="1024" >
  <font-face 
    font-family="iconfont"
    font-weight="500"
    font-stretch="normal"
    units-per-em="1024"
    panose-1="2 0 6 3 0 0 0 0 0 0"
    ascent="896"
    descent="-128"
    x-height="792"
    bbox="-0.526316 -128 1247 896"
    underline-thickness="0"
    underline-position="0"
    unicode-range="U+0078-E64A"
  />
<missing-glyph 
 />
    <glyph glyph-name=".notdef" 
 />
    <glyph glyph-name=".notdef" 
 />
    <glyph glyph-name=".null" horiz-adv-x="0" 
 />
    <glyph glyph-name="nonmarkingreturn" horiz-adv-x="341" 
 />
    <glyph glyph-name="x" unicode="x" horiz-adv-x="1001" 
d="M281 543q-27 -1 -53 -1h-83q-18 0 -36.5 -6t-32.5 -18.5t-23 -32t-9 -45.5v-76h912v41q0 16 -0.5 30t-0.5 18q0 13 -5 29t-17 29.5t-31.5 22.5t-49.5 9h-133v-97h-438v97zM955 310v-52q0 -23 0.5 -52t0.5 -58t-10.5 -47.5t-26 -30t-33 -16t-31.5 -4.5q-14 -1 -29.5 -0.5
t-29.5 0.5h-32l-45 128h-439l-44 -128h-29h-34q-20 0 -45 1q-25 0 -41 9.5t-25.5 23t-13.5 29.5t-4 30v167h911zM163 247q-12 0 -21 -8.5t-9 -21.5t9 -21.5t21 -8.5q13 0 22 8.5t9 21.5t-9 21.5t-22 8.5zM316 123q-8 -26 -14 -48q-5 -19 -10.5 -37t-7.5 -25t-3 -15t1 -14.5
t9.5 -10.5t21.5 -4h37h67h81h80h64h36q23 0 34 12t2 38q-5 13 -9.5 30.5t-9.5 34.5q-5 19 -11 39h-368zM336 498v228q0 11 2.5 23t10 21.5t20.5 15.5t34 6h188q31 0 51.5 -14.5t20.5 -52.5v-227h-327z" />
    <glyph glyph-name="icoall" unicode="&#xe60b;" 
d="M928 768q13 0 22.5 -9.5t9.5 -22.5v-576q0 -13 -9.5 -22.5t-22.5 -9.5h-832q-13 0 -22.5 9.5t-9.5 22.5v576q0 13 9.5 22.5t22.5 9.5h832zM928 800h-832q-27 0 -45.5 -18.5t-18.5 -45.5v-576q0 -27 18.5 -45.5t45.5 -18.5h832q27 0 45.5 18.5t18.5 45.5v576
q0 27 -18.5 45.5t-45.5 18.5v0zM448 547l164 -101l-164 -100v198v3zM416 608v-320l256 160l-256 160v0zM864 -64h-704q-7 0 -11.5 4.5t-4.5 11.5t4.5 11.5t11.5 4.5h704q7 0 11.5 -4.5t4.5 -11.5t-4.5 -11.5t-11.5 -4.5z" />
    <glyph glyph-name="icoarrowdown" unicode="&#xe607;" 
d="M512 121l-491 492q-12 11 -0.5 22.5t22.5 -0.5l469 -468l469 468q11 12 22.5 0.5t-0.5 -22.5z" />
    <glyph glyph-name="icoarrowleft" unicode="&#xe608;" 
d="M752 -112q-7 0 -11 5l-492 491l492 491q11 12 22.5 0.5t-0.5 -22.5l-468 -469l468 -469q12 -11 0 -22q-4 -5 -11 -5z" />
    <glyph glyph-name="icoarrowright" unicode="&#xe609;" 
d="M272 -112q-7 0 -11.5 4.5t-4.5 11.5t5 11l468 469l-468 469q-12 11 -0.5 22.5t22.5 -0.5l492 -491l-492 -491q-4 -5 -11 -5z" />
    <glyph glyph-name="icoarrowup" unicode="&#xe60a;" 
d="M992 128q-7 0 -11 5l-469 468l-469 -468q-11 -12 -22.5 -0.5t0.5 22.5l491 492l491 -492q12 -11 0 -22q-4 -5 -11 -5z" />
    <glyph glyph-name="icoball" unicode="&#xe60d;" 
d="M992 384q0 25 -3 50v0q0 3 -2 17q-17 122 -90.5 220t-183.5 149v0v0q-96 44 -201 44q-27 0 -59 -4q-10 -1 -22 -3v0q-91 -16 -169 -64v0v0q-106 -65 -168 -173t-62 -236q0 -3 0.5 -8.5t0.5 -7.5v0q0 -15 1 -27q11 -117 73.5 -214.5t161.5 -156.5v0v0q67 -39 140 -55v0v0
q52 -11 103 -11q72 0 141 21v0v0q149 46 244 172.5t95 286.5zM954 452q-182 -88 -458 -112q-52 -5 -111 -6v8.5v9.5q0 37 2 84q75 14 164 103.5t175 238.5q91 -50 151.5 -135.5t76.5 -190.5zM697 792q-78 -135 -160.5 -221t-147.5 -102q13 201 66 359q32 4 57 4
q96 0 185 -40zM357 466q-11 1 -20 4q-47 15 -67.5 90.5t-9.5 193.5q73 50 160 68q-51 -159 -63 -356zM226 729q-7 -121 19 -196t82 -94q12 -4 28 -5q-2 -46 -2 -82v-10v-9q-161 -1 -288 28q0 1 -0.5 9.5t-0.5 13.5q0 102 43 192t119 153zM68 328q124 -27 273 -27h6.5h6.5
q1 -43 5 -91q-9 -2 -17 -5q-80 -29 -98 -179q-72 54 -118.5 132.5t-57.5 169.5zM274 5q13 146 79 170q1 0 8 2q12 -119 39 -226q-67 17 -126 54zM512 -64q-36 0 -77 7q-29 110 -41 235q49 -9 112 -67t129 -157q-61 -18 -123 -18zM666 -36q-74 114 -144.5 177t-130.5 69
q-4 48 -5 92q63 2 113 6q273 24 459 111q2 -22 2 -35q0 -143 -81.5 -257.5t-212.5 -162.5z" />
    <glyph glyph-name="icofilm" unicode="&#xe610;" 
d="M480 672q26 0 45 -19t19 -45t-19 -45t-45 -19t-45 19t-19 45t19 45t45 19zM480 704q-40 0 -68 -28t-28 -68t28 -68t68 -28t68 28t28 68t-28 68t-68 28v0zM736 480q26 0 45 -19t19 -45t-19 -45t-45 -19t-45 19t-19 45t19 45t45 19zM736 512q-40 0 -68 -28t-28 -68t28 -68
t68 -28t68 28t28 68t-28 68t-68 28v0zM544 224q26 0 45 -19t19 -45t-19 -45t-45 -19t-45 19t-19 45t19 45t45 19zM544 256q-40 0 -68 -28t-28 -68t28 -68t68 -28t68 28t28 68t-28 68t-68 28v0zM288 416q26 0 45 -19t19 -45t-19 -45t-45 -19t-45 19t-19 45t19 45t45 19z
M288 448q-40 0 -68 -28t-28 -68t28 -68t68 -28t68 28t28 68t-28 68t-68 28v0zM512 832q185 0 316.5 -131.5t131.5 -316.5t-131.5 -316.5t-316.5 -131.5t-316.5 131.5t-131.5 316.5t131.5 316.5t316.5 131.5zM512 864q-98 0 -186.5 -38t-153 -102.5t-102.5 -153t-38 -186.5
t38 -186.5t102.5 -153t153 -102.5t186.5 -38t186.5 38t153 102.5t102.5 153t38 186.5t-38 186.5t-102.5 153t-153 102.5t-186.5 38v0zM960 -64h-96q-32 0 -55 22.5t-25 54.5q-13 -12 -30 -13q5 -41 36.5 -68.5t73.5 -27.5h96q7 0 11.5 4.5t4.5 11.5t-4.5 11.5t-11.5 4.5z
" />
    <glyph glyph-name="icogame" unicode="&#xe612;" 
d="M758 715q-30 0 -69.5 -11t-84 -27.5t-60.5 -21.5v65q0 46 -33 79t-79 33h-112q-7 0 -11.5 -4.5t-4.5 -11.5t4.5 -11.5t11.5 -4.5h112q33 0 56.5 -23.5t23.5 -56.5v-69q-15 1 -103 32.5t-133 31.5q-25 0 -58 -16t-70 -52.5t-67.5 -87t-50 -128.5t-19.5 -168
q0 -73 13.5 -129t33 -86.5t46 -49.5t47.5 -24.5t42 -5.5q106 0 216 175q56 -9 108 -9q23 0 50 2.5t43 4.5l15 2q111 -175 216 -175q22 0 43 5.5t47.5 24.5t46 49.5t33 86.5t13.5 129q0 90 -20 168t-50 128.5t-67 87t-70 52.5t-59 16zM841 0q-87 0 -189 160l-11 18l-21 -3
q-50 -9 -103 -9t-102 9l-21 3l-12 -18q-101 -160 -189 -160q-16 0 -33 4t-39 20.5t-38.5 43t-28 77t-11.5 118.5q0 84 18 156.5t45 119.5t59.5 80.5t61 48.5t49.5 15q42 0 147 -39q72 -26 94.5 -26t94.5 26q104 39 146 39q22 0 50.5 -15t61 -48.5t59.5 -80.5t45 -119.5
t18 -156.5q0 -68 -11.5 -118.5t-28 -77t-39 -43t-39 -20.5t-33.5 -4zM416 416h-96v96q0 7 -4.5 11.5t-11.5 4.5t-11.5 -4.5t-4.5 -11.5v-96h-96q-7 0 -11.5 -4.5t-4.5 -11.5t4.5 -11.5t11.5 -4.5h96v-96q0 -7 4.5 -11.5t11.5 -4.5t11.5 4.5t4.5 11.5v96h96q7 0 11.5 4.5
t4.5 11.5t-4.5 11.5t-11.5 4.5zM656 512q-20 0 -34 -14t-14 -34t14 -34t34 -14t34 14t14 34t-14 34t-34 14zM656 448q-7 0 -11.5 4.5t-4.5 11.5t4.5 11.5t11.5 4.5t11.5 -4.5t4.5 -11.5t-4.5 -11.5t-11.5 -4.5zM784 480q-20 0 -34 -14t-14 -34t14 -34t34 -14t34 14t14 34
t-14 34t-34 14zM784 416q-7 0 -11.5 4.5t-4.5 11.5t4.5 11.5t11.5 4.5t11.5 -4.5t4.5 -11.5t-4.5 -11.5t-11.5 -4.5zM656 384q-20 0 -34 -14t-14 -34t14 -34t34 -14t34 14t14 34t-14 34t-34 14zM656 320q-7 0 -11.5 4.5t-4.5 11.5t4.5 11.5t11.5 4.5t11.5 -4.5t4.5 -11.5
t-4.5 -11.5t-11.5 -4.5zM784 352q-20 0 -34 -14t-14 -34t14 -34t34 -14t34 14t14 34t-14 34t-34 14zM784 288q-7 0 -11.5 4.5t-4.5 11.5t4.5 11.5t11.5 4.5t11.5 -4.5t4.5 -11.5t-4.5 -11.5t-11.5 -4.5z" />
    <glyph glyph-name="icohot" unicode="&#xe614;" 
d="M500 853q59 -33 106 -92.5t70 -130.5q13 -83 -35 -186l-44 -94l89 53q79 46 128 115q55 -51 84.5 -116t29.5 -134q0 -110 -70.5 -202t-187.5 -134q-24 17 -47.5 38t-51.5 51.5t-50 69.5t-31 79l-24 101l-37 -97q-2 -4 -4.5 -12.5t-6 -33.5t-4 -51t6.5 -65t21 -78
q5 -14 11 -26q-152 19 -254.5 121.5t-102.5 238.5q0 116 77 210q23 28 80 72q36 28 56.5 46t55.5 54.5t68.5 87t66.5 115.5zM486 896q-40 -82 -80.5 -142.5t-76.5 -95.5t-67 -59.5t-62.5 -50t-51.5 -50.5q-84 -103 -84 -230q0 -108 59.5 -198.5t162.5 -143.5t224 -54
q-21 27 -38 73q-43 116 -16 210l3 8q11 -48 37.5 -94t60.5 -80t59 -55t49 -38q131 42 213 143.5t82 228.5q0 87 -41 165t-113 133q-19 -36 -54.5 -72t-81.5 -63q53 112 37 207q-27 86 -87.5 156t-133.5 102v0z" />
    <glyph glyph-name="icolife" unicode="&#xe615;" 
d="M896 832h-768q-27 0 -45.5 -18.5t-18.5 -45.5v-512q0 -27 18.5 -45.5t45.5 -18.5h124l-103 -117q-18 -18 -18 -43t18 -43t43 -18t43 17l92 82l50 -49q4 -5 10.5 -5t11.5 5l17 17v-134q0 -7 4.5 -11.5t11.5 -4.5t11.5 4.5t4.5 11.5v160q0 2 -1 5l56 55q5 5 5 11.5t-5 11.5
l-42 42l3 3h432q27 0 45.5 19t18.5 45v512q0 27 -18.5 45.5t-45.5 18.5zM213 11q-9 -8 -21 -8t-20.5 8.5t-8.5 20.5t9 21l238 268q25 -46 71 -71zM416 416q0 66 47 113t113 47t113 -47t47 -113t-47 -113t-113 -47t-113 47t-47 113zM469 136l-81 -81l-37 36l86 77zM928 256
q0 -13 -9.5 -22.5t-22.5 -9.5h-320h-76l12 11q32 -11 64 -11q80 0 136 56t56 136t-56 136t-136 56t-136 -56t-56 -136q0 -32 11 -64l-114 -128h-25h-128q-13 0 -22.5 9.5t-9.5 22.5v512q0 13 9.5 22.5t22.5 9.5h768q13 0 22.5 -9.5t9.5 -22.5v-512z" />
    <glyph glyph-name="icooutdoor" unicode="&#xe616;" 
d="M995.5 275.5q-11.5 11.5 -22.5 -0.5l-180 -179h-281v240q235 3 421 70l12 4l-1 12q-9 115 -69 211t-156 153t-207 61v17q0 7 -4.5 11.5t-11.5 4.5t-11.5 -4.5t-4.5 -11.5v-17q-111 -4 -207 -61t-156 -153t-69 -211l-1 -12l12 -4q186 -67 421 -70v-240h-256q-7 0 -12 -6
l-128 -152q-11 -12 1.5 -22t22.5 2l123 146h249v-160q0 -7 4.5 -11.5t11.5 -4.5t11.5 4.5t4.5 11.5v160h280l124 -150q4 -6 12 -6q6 0 10 4q13 10 2 22l-118 145l173 174q12 11 0.5 22.5zM296 382v2q0 176 59.5 304t140.5 128t140.5 -128t59.5 -304v-2q-99 -14 -200 -14
t-200 14zM911 432q-84 -29 -183 -45q0 137 -36 248t-95 168q125 -33 212.5 -135t101.5 -236zM395 802q-59 -56 -95 -167t-36 -248q-99 16 -183 45q14 134 101.5 236t212.5 134z" />
    <glyph glyph-name="icotech" unicode="&#xe617;" 
d="M768 608q-79 0 -143.5 -44.5t-93.5 -115.5l-153 51q6 23 6 45q0 49 -24 93l146 97q29 -30 70 -30q40 0 68 28t28 68t-28 68t-68 28t-68 -28t-28 -68q0 -20 8 -39l-146 -98q-27 34 -66 53.5t-84 19.5q-80 0 -136 -56t-56 -136t56 -136t136 -56q59 0 106.5 32t69.5 84
l153 -50q-9 -34 -9 -66q0 -75 41 -138l-172 -126q-38 40 -93 40q-53 0 -90.5 -37.5t-37.5 -90.5t37.5 -90.5t90.5 -37.5t90.5 37.5t37.5 90.5q0 32 -17 62l172 126q36 -43 87.5 -67.5t109.5 -24.5q106 0 181 75t75 181t-75 181t-181 75zM576 864q26 0 45 -19t19 -45t-19 -45
t-45 -19q-24 0 -43 17q-12 11 -17 26q-4 11 -4 21q0 26 19 45t45 19zM192 384q-66 0 -113 47t-47 113t47 113t113 47q75 0 123 -59q10 -12 17 -26q20 -36 20 -75q0 -17 -4 -36q-4 -15 -10 -29q-19 -43 -58.5 -69t-87.5 -26zM288 -96q-40 0 -68 28t-28 68t28 68t68 28
q39 0 67 -27q3 -3 8 -10l2 -3q4 -6 8 -13q11 -21 11 -43q0 -40 -28 -68t-68 -28zM768 128q-51 0 -95.5 21.5t-75.5 58.5q-9 11 -18 24q-35 55 -35 120q0 27 7 56q4 15 10 28q25 63 81.5 101.5t125.5 38.5q93 0 158.5 -65.5t65.5 -158.5t-65.5 -158.5t-158.5 -65.5z" />
    <glyph glyph-name="icotv" unicode="&#xe618;" 
d="M928 768q13 0 22.5 -9.5t9.5 -22.5v-576q0 -13 -9.5 -22.5t-22.5 -9.5h-832q-13 0 -22.5 9.5t-9.5 22.5v576q0 13 9.5 22.5t22.5 9.5h832zM928 800h-832q-27 0 -45.5 -18.5t-18.5 -45.5v-576q0 -27 18.5 -45.5t45.5 -18.5h832q27 0 45.5 18.5t18.5 45.5v576
q0 27 -18.5 45.5t-45.5 18.5v0zM864 -32h-704q-7 0 -11.5 4.5t-4.5 11.5t4.5 11.5t11.5 4.5h704q7 0 11.5 -4.5t4.5 -11.5t-4.5 -11.5t-11.5 -4.5zM480 576h-224q-7 0 -11.5 -4.5t-4.5 -11.5t4.5 -11.5t11.5 -4.5h96v-224q0 -7 4.5 -11.5t11.5 -4.5t11.5 4.5t4.5 11.5v224
h96q7 0 11.5 4.5t4.5 11.5t-4.5 11.5t-11.5 4.5zM640 295l-111 259q-2 6 0.5 12t8.5 8.5t12 0t9 -8.5l81 -189l81 189q3 6 9 8.5t12 0t8.5 -8.5t0.5 -12z" />
    <glyph glyph-name="icobeauty" unicode="&#xe619;" 
d="M928 528q0 3 -0.5 8.5t-0.5 7.5h-15h-17h-32q-4 97 -54 177.5t-133 127.5t-180 47t-180 -47t-133 -127.5t-54 -177.5h-32h-17h-15q0 -2 -0.5 -7.5t-0.5 -8.5q0 -115 55.5 -212.5t151 -156t209.5 -62.5v-65q-81 -3 -136.5 -26t-55.5 -54q0 -33 61 -56.5t147 -23.5
t147 23.5t61 56.5q0 31 -55.5 54t-136.5 26v65q114 4 209.5 62.5t151 156t55.5 212.5zM496 864q139 0 237.5 -98.5t98.5 -237.5t-98.5 -237.5t-237.5 -98.5t-237.5 98.5t-98.5 237.5t98.5 237.5t237.5 98.5zM97 512h32q4 -96 54 -177t133 -128t180 -47t180 47t133 128
t54 177h32q-4 -105 -58 -193.5t-144.5 -139.5t-196.5 -51t-196.5 51t-144.5 139.5t-58 193.5zM672 -48q-1 -8 -21 -18.5t-62.5 -20t-92.5 -9.5t-92.5 9.5t-62.5 20t-21 18.5q1 8 21 18.5t62.5 20t92.5 9.5t92.5 -9.5t62.5 -20t21 -18.5z" />
    <glyph glyph-name="icoask" unicode="&#xe61a;" 
d="M512 -96q-130 0 -240.5 64.5t-175 175t-64.5 240.5t64.5 240.5t175 175t240.5 64.5t240.5 -64.5t175 -175t64.5 -240.5t-64.5 -240.5t-175 -175t-240.5 -64.5zM512 800q-172 0 -294 -122t-122 -294t122 -294t294 -122t294 122t122 294t-122 294t-294 122zM512 224
q-13 0 -22.5 9.5t-9.5 22.5q0 28 7.5 51.5t24 43.5t28 30.5t32.5 27.5q37 30 52.5 50.5t15.5 52.5q0 53 -37.5 90.5t-90.5 37.5t-90.5 -37.5t-37.5 -90.5q0 -13 -9.5 -22.5t-22.5 -9.5t-22.5 9.5t-9.5 22.5q0 79 56.5 135.5t135.5 56.5t135.5 -56.5t56.5 -135.5
q0 -28 -7.5 -51.5t-24 -43.5t-28 -30.5t-32.5 -27.5q-37 -30 -52.5 -50.5t-15.5 -52.5q0 -13 -9.5 -22.5t-22.5 -9.5zM512 96zM448 96q0 26 19 45t45 19t45 -19t19 -45t-19 -45t-45 -19t-45 19t-19 45z" />
    <glyph glyph-name="icoplay" unicode="&#xe60c;" 
d="M512 864q-130 0 -240.5 -64.5t-175 -175t-64.5 -240.5t64.5 -240.5t175 -175t240.5 -64.5t240.5 64.5t175 175t64.5 240.5t-64.5 240.5t-175 175t-240.5 64.5zM512 -32q-172 0 -294 122t-122 294t122 294t294 122t294 -122t122 -294t-122 -294t-294 -122zM646 411
l-214 128q-16 10 -32 1t-16 -28v-256q0 -19 16 -28q8 -4 16 -4q9 0 16 5l214 128q15 9 15 27t-15 27z" />
    <glyph glyph-name="icohome" unicode="&#xe629;" horiz-adv-x="1025" 
d="M1011 506l-480 352q-19 14 -38 0l-480 -352q-11 -8 -13 -21t6 -24t21 -13t24 6l45 33v-551q0 -13 9.5 -22.5t22.5 -9.5h256q13 0 22.5 9.5t9.5 22.5v416h192v-416q0 -13 9.5 -22.5t22.5 -9.5h256q13 0 22.5 9.5t9.5 22.5v551l45 -33q9 -6 19 -6q16 0 26 13q8 11 6 24
t-13 21zM864 -32h-192v416q0 13 -9.5 22.5t-22.5 9.5h-256q-13 0 -22.5 -9.5t-9.5 -22.5v-416h-192v566l352 258l352 -258v-566z" />
    <glyph glyph-name="shuaxin2" unicode="&#xe626;" horiz-adv-x="1247" 
d="M948 38v0l-34 36l-4 4q-60 -58 -137 -87.5t-160 -27.5t-158.5 35.5t-132.5 93.5q-70 74 -98 172t-7 199l91 -107q9 -10 23 -10v0q13 0 22 9q10 9 10.5 22t-8.5 23l-146 165q-9 10 -22.5 10t-23.5 -9l-154 -157q-9 -9 -9.5 -22t8.5 -22.5t22.5 -10t22.5 8.5l100 104
q-21 -114 11 -224.5t112 -194.5q69 -73 159.5 -111t187.5 -38q91 0 177 34t154 99zM1238 403.5q-9 9.5 -22 10t-23 -8.5l-99 -104q21 114 -11.5 224.5t-111.5 194.5q-67 69 -153.5 107.5t-182.5 41.5h-12q-93 0 -178 -34.5t-153 -98.5l4 -3l34 -36v0l6 -7q61 58 138 87.5
t159 27.5q84 -2 159 -35.5t133 -93.5q70 -74 97.5 -172.5t7.5 -198.5l-92 107q-9 10 -22 10t-22.5 -9t-10 -22t8.5 -23l146 -165q9 -10 23 -10q13 0 22 9l154 157q10 9 10 22t-9 22.5z" />
    <glyph glyph-name="ycomment" unicode="&#xe604;" 
d="M928 800h-832q-13 0 -22.5 -9.5t-9.5 -22.5v-640q0 -13 9.5 -22.5t22.5 -9.5h192v-128q0 -20 18 -29q7 -3 14 -3q12 0 20 7l184 153h404q13 0 22.5 9.5t9.5 22.5v640q0 13 -9.5 22.5t-22.5 9.5zM896 160h-384q-12 0 -20 -7l-140 -117v92q0 13 -9.5 22.5t-22.5 9.5h-192
v576h768v-576z" />
    <glyph glyph-name="yplay" unicode="&#xe605;" 
d="M512 864q-130 0 -240.5 -64.5t-175 -175t-64.5 -240.5t64.5 -240.5t175 -175t240.5 -64.5t240.5 64.5t175 175t64.5 240.5t-64.5 240.5t-175 175t-240.5 64.5zM512 -32q-172 0 -294 122t-122 294t122 294t294 122t294 -122t122 -294t-122 -294t-294 -122zM646 411
l-214 128q-16 10 -32 1t-16 -28v-256q0 -19 16 -28q8 -4 16 -4q9 0 16 5l214 128q15 9 15 27t-15 27zM448 313v142l119 -71z" />
    <glyph glyph-name="ysearch" unicode="&#xe606;" 
d="M1015 -73l-251 251q100 117 100 270q0 172 -122 294t-294 122t-294 -122t-122 -294t122 -294t294 -122q153 0 270 100l251 -251q10 -9 23 -9t22.5 9.5t9.5 22.5t-9 23zM448 96q-146 0 -249 103t-103 249t103 249t249 103t249 -103t103 -249t-103 -249t-249 -103z" />
    <glyph glyph-name="ystar" unicode="&#xe60e;" 
d="M800 -94q-9 0 -18 5l-270 142l-270 -142q-9 -5 -18 -5q-16 0 -26 13q-10 12 -8 29l52 301l-219 213q-16 16 -9 36.5t29 23.5l302 44l135 274q10 20 32 20t32 -20l135 -274l302 -44q22 -3 29 -23.5t-10 -36.5l-218 -213l51 -301q4 -17 -7 -29q-10 -13 -26 -13zM110 467
l184 -179q17 -17 13 -40l-44 -254l228 120q21 11 42 0l228 -120l-44 254q-4 23 13 40l184 179l-254 37q-23 4 -34 25l-114 231l-114 -231q-10 -21 -34 -25z" />
    <glyph glyph-name="ystarfill" unicode="&#xe60f;" 
d="M512 89zM800 -94q-9 0 -18 5l-270 142l-270 -142q-9 -5 -18 -5q-16 0 -26 13q-10 12 -8 29l52 301l-219 213q-16 16 -9 36.5t29 23.5l302 44l135 274q10 20 32 20t32 -20l135 -274l302 -44q22 -3 29 -23.5t-10 -36.5l-218 -213l51 -301q4 -17 -7 -29q-10 -13 -26 -13z
" />
    <glyph glyph-name="yuser" unicode="&#xe611;" 
d="M657 360q65 38 104 104t39 144q0 119 -84.5 203.5t-203.5 84.5t-203.5 -84.5t-84.5 -203.5q0 -78 39 -144t104 -104q-134 -46 -218.5 -161t-84.5 -258v-5q0 -13 9.5 -22.5t22.5 -9.5t22.5 9.5t9.5 22.5v5q0 102 51.5 189.5t140 138.5t192.5 51t192.5 -51t140 -138.5
t51.5 -189.5v-5q0 -13 9.5 -22.5t22.5 -9.5t22.5 9.5t9.5 22.5v5q0 143 -84.5 258t-218.5 161zM288 608q0 93 65.5 158.5t158.5 65.5t158.5 -65.5t65.5 -158.5t-65.5 -158.5t-158.5 -65.5t-158.5 65.5t-65.5 158.5z" />
    <glyph glyph-name="kwudao" unicode="&#xe631;" 
d="M991 585q-2 20 -10.5 36.5t-22.5 29.5t-24 20t-27 17q-15 9 -20 13q-71 52 -67 98q2 17 14 55q5 16 -4.5 29t-25.5 13h-229h-153q-19 0 -28 -16q-6 -11 -19 -32.5t-46.5 -68.5t-63.5 -79q-13 -13 -36 -37q-43 -44 -66 -69t-49.5 -64t-34.5 -70q-15 -54 -5 -189
q4 -56 4 -78q0 -60 -34 -184q-4 -15 -5 -21q-15 -59 5 -88q18 -24 53 -27q12 -1 23 -1v0q69 0 113 55q28 36 47.5 82.5t41.5 124.5q20 73 53 113t84 53q20 6 50 12q19 -35 62 -99q31 -46 43 -66q29 -51 63 -175q3 -11 5 -21q23 -79 74 -79v0q17 0 34 8q37 17 60.5 42.5
t30.5 72t0.5 96t-27.5 128.5q-18 73 -9.5 124t45.5 88q15 15 41 39q25 22 36 34.5t19 33.5t5 47zM584 665q4 17 8 38q0 1 0.5 3.5t0.5 4.5q3 19 6 37v3.5v3.5q3 20 4 36v2q2 16 3 37v1v1h155q-3 -16 -4 -27q-7 -59 42 -112q-103 -136 -153 -232q-37 -70 -69 -139
q-13 22 -21 39v0.5v0.5q-9 21 -13 33q-11 44 10 141v0v0q5 22 11 48q3 12 8 31q9 39 12 50zM141 443q6 24 29.5 57t44 55.5t60.5 63.5q24 25 36 37q64 67 129 176h102v-0.5v-1.5q-1 -14 -2 -29q0 -1 -1 -8q-1 -16 -3 -31l-1 -4q-2 -16 -5 -35q0 -1 -0.5 -3.5t-0.5 -4.5
l-7 -35q-3 -14 -12 -49q-1 -4 -3 -11t-3.5 -12.5t-2.5 -10.5q-4 -16 -7 -32q-147 -63 -232 -117q-66 -41 -129 -85q0 51 8 80zM442 362q-42 -11 -75 -34.5t-53.5 -55.5t-32 -59.5t-21.5 -61.5q-20 -72 -36.5 -113t-41.5 -72q-17 -21 -35 -26t-44 -3q-2 0 -5 1h-1v0
q-3 7 4 35q1 5 5 19q36 132 36 201q0 24 -4 83q-1 2 -1 6v5q73 53 159 107q67 43 183 95q-9 -67 2 -110q1 -3 2 -7q-22 -5 -41 -10zM888 517q-26 -24 -43 -41q-98 -97 -53 -273q19 -73 25 -117t1 -82q-4 -26 -16.5 -40t-38.5 -26q-4 -2 -6 -2q-6 6 -13 32q-2 7 -6 20
q-35 132 -69 191q-12 22 -45 70q-3 5 -6 9q37 83 84 173q47 88 145 220q1 0 1.5 -0.5l0.5 -0.5q8 -6 25 -16q27 -17 39.5 -28.5t13.5 -27.5q2 -16 -4 -25.5t-35 -35.5z" />
    <glyph glyph-name="kyumao" unicode="&#xe632;" 
d="M993 340q0 46 -33 78l-48 49q-33 32 -80 32q1 47 -32 79l-94 94q-32 33 -79 32v0.5v0.5q0 46 -32 79l-49 48q-32 32 -78 32t-78 -32h-1q-1 -2 -4 -7l-1 -1.5t-2 -2.5v0l-242 -606q-48 -17 -78 -58.5t-30 -92.5q0 -66 47 -113t113 -47q51 0 92.5 30t58.5 78l606 242v0
q1 1 3 2t2 2q5 3 6 3v0q33 33 33 79zM866 422l49 -49q14 -14 14 -33q0 -16 -11 -29l-594 -237l-7 7l479 337l0.5 1t1 1t1.5 0.5l1 0.5q14 14 33.5 14t32.5 -13zM661 627l94 -94q14 -14 14 -33q0 -18 -13 -32l-485 -341l-15 15l340 485q13 13 32.5 13t32.5 -13zM501 787
l49 -49q13 -13 13 -32.5t-13 -33.5q-1 0 -1.5 -1t-0.5 -1.5t-1 -1l-1 -0.5l-336 -480l-8 8l237 593q13 12 31 11.5t31 -13.5zM192 -32q-40 0 -68 28t-28 68q0 29 16.5 53t42.5 36l125 -126q-11 -26 -35 -42.5t-53 -16.5z" />
    <glyph glyph-name="kzhuoqiu" unicode="&#xe633;" 
d="M512 864q-130 0 -240.5 -64.5t-175 -175t-64.5 -240.5t64.5 -240.5t175 -175t240.5 -64.5t240.5 64.5t175 175t64.5 240.5t-64.5 240.5t-175 175t-240.5 64.5zM512 -32q-172 0 -294 122t-122 294t122 294t294 122t294 -122t122 -294t-122 -294t-294 -122zM463.5 704
q-112.5 0 -192 -79.5t-79.5 -192t79.5 -192.5t192 -80t192.5 80t80 192.5t-80 192t-192.5 79.5zM464 224q-86 0 -147 61t-61 147t61 147t147 61t147 -61t61 -147t-61 -147t-147 -61zM547 456q13 21 13 45q0 34 -24.5 58.5t-58.5 24.5h-26q-34 0 -58.5 -24.5t-24.5 -58.5
q0 -24 13 -45q-35 -30 -35 -75q0 -42 29.5 -71.5t71.5 -29.5h34q42 0 71.5 29.5t29.5 71.5q0 45 -35 75zM451 520h26q8 0 13.5 -5.5t5.5 -13.5t-5.5 -14t-13.5 -6h-26q-8 0 -13.5 6t-5.5 14t5.5 13.5t13.5 5.5zM481 344h-34q-15 0 -26 10.5t-11 26t11 26t26 10.5h4h26h4
q15 0 26 -10.5t11 -26t-11 -26t-26 -10.5z" />
    <glyph glyph-name="kzuqiu" unicode="&#xe634;" 
d="M992 384q0 75 -23 147v1l-0.5 0.5l-0.5 0.5v0q-48 146 -173.5 238.5t-282.5 92.5t-282.5 -92.5t-173.5 -237.5v-1l-0.5 -0.5l-0.5 -0.5v-1q-23 -72 -23 -147q0 -116 52.5 -217.5t142.5 -168.5q1 0 1.5 -1t1 -1.5t2 -1l1.5 -0.5q126 -90 279 -90t279 90l1.5 0.5t2 1t1 1.5
t1.5 1q90 67 142.5 168.5t52.5 217.5zM781 68l-102 140l71 220l166 54q12 -50 12 -98q0 -93 -39 -175.5t-108 -140.5zM404 235l-67 206l175 127l175 -127l-67 -206h-216zM896 543l-165 -54l-187 135v174q118 -9 213 -78.5t139 -176.5zM480 798v-174l-187 -135l-165 54
q44 107 139 176.5t213 78.5zM96 384q0 48 12 98l166 -54l71 -220l-102 -140q-69 58 -108 140.5t-39 175.5zM294 30l103 141h230l103 -141q-101 -62 -218 -62t-218 62z" />
    <glyph glyph-name="kbangqiu" unicode="&#xe635;" 
d="M992 384q0 115 -51.5 215.5t-140.5 167.5l-0.5 0.5l-0.5 0.5h-0.5h-0.5q-128 96 -286 96t-286 -96h-0.5h-0.5l-0.5 -0.5l-0.5 -0.5q-89 -67 -140.5 -167.5t-51.5 -215.5t51.5 -215.5t140.5 -167.5l0.5 -0.5l0.5 -0.5h0.5h0.5q128 -96 286 -96t286 96h0.5h0.5l0.5 0.5
l0.5 0.5q89 67 140.5 167.5t51.5 215.5zM928 384q0 -90 -37 -170.5t-102 -139.5q-19 33 -35 70q15 7 28 12t18 17t0 24.5t-17 18t-24 0.5t-28 -12q-11 35 -18 76q16 1 27 2q13 0 22 9.5t9 23.5q0 12 -10 21t-23 10q-15 -1 -32 -3q-2 23 -2 41t2 41q17 -2 32 -3h1
q13 0 22.5 9t9.5 22q0 14 -9 23.5t-22 9.5q-12 1 -27 2q7 41 18 76q16 -7 28 -12q6 -2 12 -2q21 0 29 20q5 13 0 25t-18 17q-14 6 -28 13q16 36 35 69q65 -59 102 -139.5t37 -170.5zM96 384q0 90 37 170.5t102 139.5q19 -33 35 -69q-15 -8 -28 -13t-18 -17t0 -25
q8 -20 29 -20q7 0 12 2q12 5 28 12q11 -35 18 -76q-15 -1 -27 -2q-13 0 -22 -9.5t-9 -23.5q1 -13 10 -22t22 -9h1q15 1 33 3q1 -23 1 -41t-2 -41q-17 2 -32 3q-14 0 -23.5 -9t-9.5 -22.5t9 -23t22 -9.5q12 -1 27 -2q-7 -41 -18 -76q-16 7 -28 12t-24 -0.5t-17 -18t0 -24.5
t18 -17q14 -5 28 -12q-16 -37 -35 -70q-65 59 -102 139.5t-37 170.5zM286 35q22 37 40 76q13 -10 18 -14q9 -7 20 -7q16 0 25 12q9 10 7.5 23.5t-12.5 21.5q-15 12 -35 25q16 47 25 97q14 -4 27 -8q5 -2 10 -2q23 0 31 22q4 13 -2 25t-19 16q-17 5 -39 11q2 25 2 51t-2 51
q22 5 39 11q13 4 19 16t1.5 24.5t-16 18.5t-24.5 2t-27 -8q-9 50 -25 97q20 13 35 25q10 8 12 21.5t-6.5 23.5t-21.5 11.5t-24 -6.5q-6 -5 -18 -14q-18 39 -40 76q103 67 226 67t226 -67q-22 -37 -40 -76q-12 9 -18 14q-11 8 -24 6.5t-21.5 -11.5t-6.5 -23.5t12 -21.5
q15 -12 35 -25q-16 -47 -25 -97q-14 4 -27 8t-24.5 -2t-16 -18.5t1.5 -24.5t19 -16q17 -6 39 -11q-2 -25 -2 -51t2 -51q-22 -5 -39 -11q-13 -4 -19 -16t-2 -25q8 -22 31 -22q5 0 10 2q13 4 27 8q9 -50 25 -97q-20 -13 -35 -25q-11 -8 -12.5 -21.5t7.5 -23.5q9 -12 25 -12
q11 0 19 7q8 5 19 14q18 -39 40 -76q-103 -67 -226 -67t-226 67z" />
    <glyph glyph-name="kganlan" unicode="&#xe636;" 
d="M919 791q-12 13 -32 26v0q-75 49 -193 49q-125 0 -248 -53t-217 -146q-73 -74 -121.5 -167.5t-65.5 -183t-8 -171t45 -136.5v0q13 -20 26 -32q74 -75 225 -75v0q125 0 248 53t217 146q77 77 126.5 174.5t65.5 204.5q15 99 -3 181.5t-65 129.5zM274 622q93 92 207 136
t213 44q53 0 98 -13q-62 -27 -124 -63l-28 27q-9 10 -22.5 10t-22.5 -9.5t-9 -22.5t9 -23l17 -17q-26 -17 -53 -37l-26 26q-10 10 -23 10t-22.5 -9.5t-9.5 -23t9 -22.5l20 -20q-23 -18 -49 -41l-23 23q-10 10 -23 10t-22.5 -9.5t-9.5 -23t9 -22.5l22 -22q-2 -1 -10.5 -9
t-13 -12.5t-12.5 -13t-9 -10.5l-22 22q-9 9 -22.5 9t-23 -9.5t-9.5 -22.5t10 -23l23 -23q-23 -26 -41 -49l-20 20q-9 9 -22.5 9t-23 -9.5t-9.5 -22.5t10 -23l26 -26q-20 -27 -37 -53l-17 17q-10 9 -23 9t-22.5 -9t-9.5 -22.5t10 -22.5l27 -28q-36 -61 -63 -124
q-12 40 -13 88.5t9 103.5t31 110t57 111.5t83 104.5zM924 489q-15 -96 -60 -184.5t-114 -158.5q-93 -92 -207 -136t-213 -44q-124 0 -180 56q-1 1 -3 3.5l-2 2.5q29 78 72 153l16 -16q9 -9 22.5 -9t23 9.5t9.5 22.5t-10 22l-27 27q17 27 37 54l18 -18q10 -10 23 -10
t22.5 9.5t9.5 23t-9 22.5l-25 25q19 24 41 50l21 -22q10 -9 23 -9t22.5 9t9.5 22.5t-9 22.5l-24 24q1 2 9 10.5t13 12.5q3 4 7 7.5t8.5 8t7.5 6.5l24 -23q9 -10 22.5 -10t23 9.5t9.5 22.5t-10 23l-22 21q25 22 50 41l25 -25q9 -9 22.5 -9t23 9.5t9.5 22.5t-10 23l-18 18
q27 20 54 37l27 -27q9 -10 22.5 -10t22.5 9.5t9 23t-9 22.5l-16 16q75 43 153 72l2.5 -2t3.5 -3q36 -36 49 -105t1 -152z" />
    <glyph glyph-name="kjianshen" unicode="&#xe637;" 
d="M777 697q-80 0 -140.5 -53t-71.5 -131q-68 -6 -122.5 -36t-85.5 -76q-25 52 -57 80q-39 34 -50 100q54 -9 86 26t32 101q0 19 -5.5 39.5t-17.5 42.5t-35.5 38t-55.5 19h-5q-51 -2 -92.5 -22t-66 -49.5t-39 -58t-18.5 -53.5q-1 -3 -1 -6q0 -183 35.5 -332.5t97.5 -235
t139 -88.5q73 -18 141 -18q115 0 188 47q85 4 146 75.5t69 172.5q64 22 104 78.5t40 124.5q0 89 -63 152t-152 63zM810 335q-11 -3 -18 -11.5t-7 -20.5q0 -86 -47.5 -147t-114.5 -61q-10 0 -18 -6q-45 -32 -123.5 -38.5t-166.5 14.5q-3 1 -7 1q-38 0 -75.5 44t-68 119.5
t-49.5 187.5t-19 237q2 10 6 20.5t15.5 30.5t27 35.5t43.5 28t61 14.5q16 -2 27 -10.5t16.5 -18t8.5 -21.5t3 -17v-8q0 -65 -35 -65q-15 0 -35 9q-20 7 -35 -8q-16 -15 -14 -50q1 -40 20 -86t53 -75q26 -23 44 -66t24 -74q3 -12 13 -19.5t22 -6t20.5 10.5t8.5 21
q0 63 60 107t144 44q14 0 23 9.5t9 22.5q0 62 44.5 106.5t107 44.5t106.5 -44.5t44 -106.5q0 -53 -33.5 -94.5t-84.5 -52.5z" />
    <glyph glyph-name="klanqiu" unicode="&#xe638;" 
d="M992 384q0 104 -42.5 196.5t-117.5 160.5q-1 1 -2 1q-65 58 -146.5 90t-171.5 32q-130 0 -240.5 -64.5t-175 -175t-64.5 -240.5t64.5 -240.5t175 -175t240.5 -64.5q90 0 172.5 32.5t147.5 90.5l1 1l1 1q74 67 116 159t42 196zM805 89q-158 85 -209 202q178 10 330 60
q-12 -153 -121 -262zM926 419q-160 -56 -348 -65q-2 17 -2 30q0 82 60 159t169 136q109 -108 121 -260zM753 723q-116 -67 -178.5 -155t-62.5 -184q0 -14 2 -32h-1h-1q-45 0 -96 4v8.5v10.5v9q0 224 67 415q21 1 29 1q132 0 241 -77zM411 787q-59 -187 -59 -403v-12v-11
q-48 6 -96 15v4.5v3.5q0 119 -94 223q42 67 107 114t142 66zM98 351q40 -13 86 -24q-14 -55 -55 -106q-26 62 -31 130zM98 419q5 67 31 128q60 -76 63 -156q-48 12 -94 28zM162 161q64 71 85 152q53 -10 108 -16q10 -170 56 -316q-78 19 -142.5 66t-106.5 114zM483 -31
q-52 148 -64 322q51 -3 93 -3h8.5h8.5q49 -141 224 -243q-109 -77 -241 -77q-8 0 -29 1z" />
    <glyph glyph-name="kpaiqiu" unicode="&#xe639;" 
d="M512 864q-90 0 -172 -32t-147 -91h-1v0q-75 -68 -117.5 -160.5t-42.5 -196.5q0 -93 34.5 -177.5t96.5 -150.5v-0.5t0.5 -0.5t0.5 -0.5v-0.5q67 -70 157 -110t191 -40q130 0 240.5 64.5t175 175t64.5 240.5t-64.5 240.5t-175 175t-240.5 64.5zM371 -7q-68 25 -122 69
q98 37 173 111l3 3q77 78 112 180q78 15 157 0q-10 -100 -64 -183.5t-140 -133.5q-55 -32 -119 -46zM244 702q54 45 121 71q-17 -102 9 -202q0 -5 3 -11q29 -103 99 -183q-26 -76 -79 -137q-82 59 -127.5 147.5t-45.5 188.5q0 63 20 126zM743 410q-6 3 -13 4v0
q-102 25 -205 5q-53 61 -80 137q92 41 191 36.5t186 -55.5q55 -31 99 -80q7 -38 7 -73q0 -31 -6 -67q-79 66 -179 93zM881 576q-16 11 -27 17q-98 56 -209.5 63t-215.5 -37q-15 88 6 172l0.5 0.5t0.5 1.5q39 7 76 7q118 0 217 -61t152 -163zM161 607q-1 -20 -1 -31
q0 -113 50 -213t140 -169q-68 -56 -152 -81v0q0 1 -0.5 1h-0.5q-101 117 -101 270q0 120 65 223zM512 -32q-3 0 -9.5 0.5t-8.5 0.5l28 14q98 57 159.5 150t75.5 205q84 -30 146 -90v-1l0.5 -0.5l0.5 -0.5q-44 -123 -151 -200.5t-241 -77.5z" />
    <glyph glyph-name="kpingpang" unicode="&#xe63a;" 
d="M560 864q-61 0 -123 -18q-33 18 -69 18q-60 0 -102 -42t-42 -102q0 -1 2 -16q-98 -119 -98 -272q0 -106 50 -201l-102 -102q-28 -28 -28 -68t28 -68l45 -45q28 -28 68 -28t68 28l102 102q95 -50 201 -50q117 0 216.5 58t157.5 157.5t58 216.5t-58 216.5t-157.5 157.5
t-216.5 58zM368 800q33 0 56.5 -23.5t23.5 -56.5t-23.5 -56.5t-56.5 -23.5t-56.5 23.5t-23.5 56.5t23.5 56.5t56.5 23.5zM331 112l-119 -119q-9 -9 -22.5 -9t-22.5 9l-46 46q-9 9 -9 22.5t9 22.5l119 119q18 18 5 39q-43 72 -51 159l335 -335q-87 8 -159 51q-21 13 -39 -5z
M616 69l-419 420q12 78 56 145q44 -58 115 -58q60 0 102 42t42 102q0 38 -21 73q36 7 69 7q152 0 260 -108t108 -260q0 -137 -89 -240t-223 -123z" />
    <glyph glyph-name="kqipai" unicode="&#xe63b;" 
d="M992 320q0 119 -84 204q-10 9 -102 89q-222 192 -271 242q-9 9 -23 9t-23 -9q-49 -50 -271 -242q-92 -80 -102 -89q-84 -85 -84 -204t84.5 -203.5t203.5 -84.5q45 0 90 15q-46 -53 -104 -82q-10 -5 -15 -15.5t-2.5 -21t11.5 -17.5t20 -7h384h1q13 0 22.5 9.5t9.5 22.5
q0 23 -22 30q-56 29 -101 81q45 -15 90 -15q119 0 203.5 84.5t84.5 203.5zM96 320q0 93 66 158q7 8 98 86q191 166 252 223q60 -56 252 -223q91 -78 98 -86q66 -65 66 -158t-65.5 -158.5t-158.5 -65.5q-48 0 -92 20t-76 56q-10 11 -24 11t-24 -11q-32 -36 -76 -56t-92 -20
q-93 0 -158.5 65.5t-65.5 158.5zM423 -32q51 47 89 113q38 -66 89 -113h-178z" />
    <glyph glyph-name="kquanji" unicode="&#xe63c;" 
d="M930 492q-2 3 -11 11l9 105q0 106 -75 181t-181 75h-320q-106 0 -181 -75.5t-75 -183.5l32 -349q0 -59 25.5 -111.5t70.5 -88.5v-152q0 -13 9.5 -22.5t22.5 -9.5h512q13 0 22.5 9.5t9.5 22.5v153q29 24 52 55q36 50 70 135t38 158q3 51 -30 87zM736 -64h-448v83
q46 -19 96 -19h256h1h1q51 2 94 19v-83zM800 150q-62 -86 -166 -86h-250q-80 0 -136 57t-56 138l-32 349q0 79 56.5 135.5t135.5 56.5h320q79 0 135.5 -56t56.5 -133l-7 -76q-28 8 -53 9h-64q-105 0 -125 -111q-3 -13 -6 -41q-6 -61 -15 -75q-8 -7 -50 -30l-36 -18
q-12 -5 -16.5 -17.5t1.5 -24.5t18.5 -16.5t24.5 1.5q17 8 37 19q60 31 72 48q20 29 28 106q3 26 5 37q6 34 21 46t41 12h63q17 -1 41.5 -8.5t38.5 -23t13 -40.5q-3 -63 -34 -139t-62 -119z" />
    <glyph glyph-name="kshuaijiao" unicode="&#xe63d;" horiz-adv-x="1025" 
d="M297 482q-10 9 -23 8.5t-22 -10.5t-8.5 -23t10.5 -22q15 -14 36.5 -49t30.5 -79q10 -46 11.5 -87.5t-10 -99.5t-38.5 -127q-5 -12 0.5 -24.5t17.5 -17.5q6 -2 12 -2q22 0 30 21q31 79 43 148t9.5 112t-12.5 91q-10 45 -33 86.5t-35 55t-19 19.5zM1020.5 700.5
q-6.5 11.5 -19.5 15.5t-24 -3q-63 -35 -97.5 -71.5t-48.5 -94.5q-10 -44 -11 -170q0 -57 -1 -71q-4 -37 -15.5 -58t-39.5 -33q-29 -13 -97 -3q-12 2 -21 3q-47 127 -108 212q-34 48 -81 128q-1 0 -2 2t-1 3q11 4 20 8q24 -21 48 -21q9 0 18 3q20 7 31 29.5t9.5 44.5t-6.5 40
q-9 27 -36.5 40t-54.5 3q-26 -9 -39 -33.5t-6 -51.5q-11 -4 -22 -7q-11 -2 -49 4q-24 6 -63 6t-69 -13q-26 -11 -44 -27.5t-27.5 -36.5t-14 -38t-7.5 -41q-2 -17 -2 -78q0 -119 -9 -155q-10 -40 -34.5 -67t-79.5 -58q-12 -7 -15.5 -19.5t2.5 -24.5q10 -16 28 -16q9 0 16 4
q63 35 97 71.5t48 94.5q11 44 11 169q0 58 2 72q4 37 15.5 58t38.5 33q30 13 98 3q13 -2 25 -4q8 -13 18 -30q49 -82 85 -133q52 -72 93 -178q-15 -5 -28 -11q-25 21 -49 21q-9 0 -17 -3q-21 -7 -31.5 -29.5t-9 -44.5t5.5 -40q8 -21 26.5 -34.5t41.5 -13.5q12 0 24 5
q28 10 41 37q10 23 4 48q11 4 22 7q10 2 48 -4q25 -6 64 -6t69 13q25 11 43 27.5t27.5 36.5t14.5 38t7 41q2 18 2 78q1 119 9 155q10 40 35 67t80 58q12 7 15.5 19.5t-3 24zM507 647q5 0 7 -5q4 -9 2 -25q-13 10 -16 20q-3 8 7 10zM524.5 125q-1.5 -3 -4.5 -4q-7 -3 -10 5
q-3 9 -1 25q12 -10 16 -20q1 -3 -0.5 -6zM728 286q9 -9 21 -9q14 0 24 11q9 10 8.5 23t-10.5 22q-5 4 -14.5 15.5t-27.5 44t-26 68.5q-10 46 -11 87t10.5 99.5t38.5 127.5q5 12 -0.5 24.5t-18 17t-24.5 -0.5t-17 -18q-31 -79 -43 -148t-10 -112t13 -91q10 -45 33 -86.5
t35.5 -55.5t18.5 -19z" />
    <glyph glyph-name="kwangqiu" unicode="&#xe63e;" 
d="M512 864q-82 0 -161 -29h-1h-1q-100 -36 -176 -112t-112 -176v-1v-1q-29 -79 -29 -161q0 -130 64.5 -240.5t175 -175t240.5 -64.5t240.5 64.5t175 175t64.5 240.5t-64.5 240.5t-175 175t-240.5 64.5zM354 769q47 -48 99.5 -80t130.5 -59q81 -24 132.5 -92.5t51.5 -153.5
q0 -106 -75 -181t-181 -75q-85 0 -153.5 52t-92.5 134q-28 76 -59.5 128.5t-79.5 99.5q32 77 91 136t136 91zM512 -32q-172 0 -294 122t-122 294q0 44 10 88q59 -67 99 -177q30 -102 115.5 -166.5t191.5 -64.5q132 0 226 94t94 226q0 106 -64 191.5t-165 114.5
q-111 41 -179 100q44 10 88 10q172 0 294 -122t122 -294t-122 -294t-294 -122z" />
    <glyph glyph-name="kbofang" unicode="&#xe63f;" 
d="M872 744h-720q-37 0 -63.5 -26.5t-26.5 -63.5v-480q0 -37 26.5 -63.5t63.5 -26.5h720q37 0 63.5 26.5t26.5 63.5v480q0 37 -26.5 63.5t-63.5 26.5zM902 174q0 -12 -9 -21t-21 -9h-720q-12 0 -21 9t-9 21v480q0 12 9 21t21 9h720q12 0 21 -9t9 -21v-480zM722 24h-420
q-12 0 -21 -9t-9 -21t9 -21t21 -9h420q12 0 21 9t9 21t-9 21t-21 9z" />
    <glyph glyph-name="kpeilv" unicode="&#xe640;" 
d="M787 798h-543q-80 0 -136 -56t-56 -136v-450q0 -79 56 -135.5t136 -56.5h543q80 0 136 56.5t56 135.5v450q0 80 -56 136t-136 56zM915 173q0 -60 -42 -102.5t-102 -42.5h-511q-60 0 -102 42.5t-42 102.5v417q0 60 42 102t102 42h511q60 0 102 -42t42 -102v-417zM742 534
l-184 -192l-101 106q-13 14 -31 8q-7 -2 -13 -8l-167 -175q-9 -9 -9 -22t9 -22.5t21.5 -9.5t21.5 9l146 152l101 -105q11 -11 25 -9q11 1 19 9l205 214q9 9 9 22.5t-9 22.5t-21.5 9t-21.5 -9z" />
    <glyph glyph-name="kbifen" unicode="&#xe642;" 
d="M780 813h-542q-79 0 -135 -56.5t-56 -136.5v-448q0 -79 56 -135.5t135 -56.5h542q80 0 136 56.5t56 135.5v448q0 80 -56 136.5t-136 56.5zM908 188q0 -59 -42 -101.5t-102 -42.5h-510q-59 0 -101.5 42.5t-42.5 101.5v416q0 60 42.5 102.5t101.5 42.5h510q60 0 102 -42.5
t42 -102.5v-416zM589 540h-319q-13 0 -22.5 -9t-9.5 -23v-224q0 -13 9.5 -22.5t22.5 -9.5h319q13 0 22.5 9.5t9.5 22.5v224q0 14 -9.5 23t-22.5 9zM557 316h-255v160h255v-160zM797 266v274l-144 -145z" />
    <glyph glyph-name="krefresh" unicode="&#xe641;" 
d="M960 768q-13 0 -22.5 -9.5t-9.5 -22.5v-114q-64 111 -175.5 176.5t-240.5 65.5q-168 0 -300.5 -106.5t-168.5 -270.5q-3 -13 4.5 -24t20.5 -14q3 -1 7 -1q11 0 19.5 7t11.5 18q31 142 146 234.5t260 92.5q116 0 215.5 -61t152.5 -163h-112q-13 0 -22.5 -9.5t-9.5 -22.5
t9.5 -22.5t22.5 -9.5h192q13 0 22.5 9.5t9.5 22.5v192q0 13 -9.5 22.5t-22.5 9.5zM956 319q-13 3 -24 -4t-14 -20q-31 -142 -146 -234.5t-260 -92.5q-116 0 -215.5 61t-152.5 163h112q13 0 22.5 9.5t9.5 22.5t-9.5 22.5t-22.5 9.5h-192q-13 0 -22.5 -9.5t-9.5 -22.5v-192
q0 -13 9.5 -22.5t22.5 -9.5t22.5 9.5t9.5 22.5v114q64 -111 175.5 -176.5t240.5 -65.5q168 0 300.5 106.5t168.5 270.5q3 13 -4.5 24t-20.5 14z" />
    <glyph glyph-name="ytriangle" unicode="&#xe613;" 
d="M283 64q-9 0 -16 4q-16 9 -16 28v576q0 19 16 28t32 -1l480 -288q16 -9 16 -27t-16 -27l-480 -288q-7 -5 -16 -5zM315 615v-462l385 231z" />
    <glyph glyph-name="yarrowright" unicode="&#xe602;" 
d="M352 0q-13 0 -22.5 9.5t-9.5 22.5t9 23l330 329l-330 329q-9 10 -9 23t9.5 22.5t22.5 9.5t23 -9l352 -352q9 -10 9 -23t-9 -23l-352 -352q-10 -9 -23 -9v0z" />
    <glyph glyph-name="yarrowup" unicode="&#xe603;" 
d="M864 192q-13 0 -23 9l-329 330l-329 -330q-10 -9 -23 -9t-22.5 9.5t-9.5 22.5t9 23l352 352q10 9 23 9t23 -9l352 -352q9 -10 9 -23t-9.5 -22.5t-22.5 -9.5z" />
    <glyph glyph-name="yarrowdown" unicode="&#xe600;" 
d="M512 160q-13 0 -23 9l-352 352q-9 10 -9 23t9.5 22.5t22.5 9.5t23 -9l329 -330l329 330q10 9 23 9t22.5 -9.5t9.5 -22.5t-9 -23l-352 -352q-10 -9 -23 -9z" />
    <glyph glyph-name="yarrowleft" unicode="&#xe601;" 
d="M672 0q-13 0 -23 9l-352 352q-9 10 -9 23t9 23l352 352q10 9 23 9t22.5 -9.5t9.5 -22.5t-9 -23l-330 -329l330 -329q9 -10 9 -23t-9.5 -22.5t-22.5 -9.5v0z" />
    <glyph glyph-name="yeye" unicode="&#xe61e;" horiz-adv-x="1025" 
d="M512 192q-79 0 -135.5 56.5t-56.5 135.5t56.5 135.5t135.5 56.5t135.5 -56.5t56.5 -135.5t-56.5 -135.5t-135.5 -56.5zM512 512q-53 0 -90.5 -37.5t-37.5 -90.5t37.5 -90.5t90.5 -37.5t90.5 37.5t37.5 90.5t-37.5 90.5t-90.5 37.5zM512 0q-57 0 -116 20t-105.5 49.5
t-93 70.5t-77.5 75.5t-60 72.5t-39 53.5t-16 25.5q-10 17 0 34q6 10 16 25.5t39 53.5t60 72.5t77.5 75.5t93 70.5t105.5 49.5t116 20t116 -20t105.5 -49.5t93 -70.5t77.5 -75.5t60 -72.5t39 -53.5t16 -25.5q10 -17 0 -34q-6 -10 -16 -25.5t-39 -53.5t-60 -72.5t-77.5 -75.5
t-93 -70.5t-105.5 -49.5t-116 -20zM70 384q20 -29 43.5 -60t70.5 -81t94.5 -87t110.5 -64.5t123 -27.5t123.5 27.5t110.5 64.5t94 87t70.5 81t43.5 60q-20 29 -43.5 60t-70.5 81t-94.5 87t-110.5 64.5t-123 27.5t-123.5 -27.5t-110.5 -64.5t-94 -87t-70.5 -81t-43.5 -60z
" />
    <glyph glyph-name="live-home" unicode="&#xe648;" 
d="M783 16q0 -13 -9.5 -22.5t-22.5 -9.5h-480v0q-13 0 -22.5 9t-9.5 23v422h-33v-422q0 -27 19 -45.5t46 -18.5h480q27 0 46 18.5t19 45.5v422h-33v-422zM541 801q-14 13 -28 13q-15 2 -30 -12l-431 -365l21 -24l432 365q2 2 5 4h2q2 0 7 -4l430 -365l21 24zM407 357.5
q0 14.5 -10.5 25t-25.5 10.5t-25.5 -10.5t-10.5 -25t10.5 -25t25.5 -10.5t25.5 10.5t10.5 25zM651 393q-15 0 -25.5 -10.5t-10.5 -25t10.5 -25t25.5 -10.5t25.5 10.5t10.5 25t-10.5 25t-25.5 10.5zM665 200q-4 1 -9 1q-11 0 -16 -10q-2 -4 -5 -8q-10 -12 -22 -21
q-40 -32 -102 -32t-102 32q-12 9 -21 21q-4 4 -6 8q-5 10 -16 10q-5 0 -8 -1q-11 -5 -11 -17q0 -4 2 -8q11 -21 37 -41q51 -40 125.5 -40t124.5 40q26 20 37 41q2 4 2 8q0 12 -10 17z" />
    <glyph glyph-name="live-cate" unicode="&#xe649;" 
d="M905 832h-306q-23 0 -39 -16t-16 -39v-306q0 -23 16 -39t39 -16h306q23 0 39 16t16 39v306q0 23 -16 39t-39 16zM928 471q0 -10 -6.5 -16.5t-16.5 -6.5h-306q-10 0 -16.5 6.5t-6.5 16.5v306q0 10 6.5 16.5t16.5 6.5h306q10 0 16.5 -6.5t6.5 -16.5v-306zM425 832h-306
q-23 0 -39 -16t-16 -39v-306q0 -23 16 -39t39 -16h306q23 0 39 16t16 39v306q0 23 -16 39t-39 16zM448 471q0 -10 -6.5 -16.5t-16.5 -6.5h-306q-10 0 -16.5 6.5t-6.5 16.5v306q0 10 6.5 16.5t16.5 6.5h306q10 0 16.5 -6.5t6.5 -16.5v-306zM425 352h-306q-23 0 -39 -16
t-16 -39v-306q0 -23 16 -39t39 -16h306q23 0 39 16t16 39v306q0 23 -16 39t-39 16zM448 -9q0 -10 -6.5 -16.5t-16.5 -6.5h-306q-10 0 -16.5 6.5t-6.5 16.5v306q0 10 6.5 16.5t16.5 6.5h306q10 0 16.5 -6.5t6.5 -16.5v-306zM752 352q-86 0 -147 -61t-61 -147t61 -147t147 -61
t147 61t61 147t-61 147t-147 61zM752 -29q-72 0 -122.5 50.5t-50.5 122.5t50.5 122.5t122.5 50.5t122.5 -50.5t50.5 -122.5t-50.5 -122.5t-122.5 -50.5z" />
    <glyph glyph-name="live-star" unicode="&#xe64a;" 
d="M634 516l-122 217l-122 -217l-247 -47l172 -182l-31 -246l228 105l228 -105l-31 246l172 182zM701 94l-189 88l-189 -88l26 204l-143 150l205 39l101 181l101 -181l205 -39l-143 -150zM512 864q-130 0 -240.5 -64.5t-175 -175t-64.5 -240.5t64.5 -240.5t175 -175
t240.5 -64.5t240.5 64.5t175 175t64.5 240.5t-64.5 240.5t-175 175t-240.5 64.5zM512 -64q-185 0 -316.5 131.5t-131.5 316.5t131.5 316.5t316.5 131.5t316.5 -131.5t131.5 -316.5t-131.5 -316.5t-316.5 -131.5z" />
  </font>
</defs>
</svg>
